<?xml version="1.0" encoding="UTF-8"?>
<svg id="Capa_1" data-name="Capa 1" xmlns="http://www.w3.org/2000/svg" viewBox="0 0 750 209.83">
  <defs>
    <style>
      .cls-1 {
        fill: #242322;
      }

      .cls-2 {
        fill: #065f46;
      }

      .cls-3 {
        fill: #10b981;
      }
    </style>
  </defs>
  <g>
    <path class="cls-1" d="M258.8,205.61V0h29.01v205.61h-29.01ZM284.43,163.36v-33.8l67.03-60.55h39.15l-106.18,94.35ZM359.35,205.61l-58.87-79.71,21.97-13.8,71.26,93.51h-34.36Z"/>
    <path class="cls-1" d="M459.62,209.83c-14.65,0-27.32-3.01-38.02-9.01-10.7-6.01-18.97-14.41-24.79-25.21-5.82-10.8-8.73-23.52-8.73-38.16s2.91-27.41,8.73-38.3c5.82-10.89,14.08-19.34,24.79-25.35,10.7-6.01,23.38-9.01,38.02-9.01s27.37,3.01,38.16,9.01c10.8,6.01,19.01,14.46,24.65,25.35,5.63,10.89,8.45,23.66,8.45,38.3s-2.82,27.37-8.45,38.16c-5.63,10.8-13.85,19.2-24.65,25.21-10.8,6.01-23.52,9.01-38.16,9.01ZM459.9,184.77c12.77,0,22.91-4.32,30.42-12.96,7.51-8.63,11.27-20.09,11.27-34.36s-3.76-26.24-11.27-34.78c-7.51-8.54-17.65-12.82-30.42-12.82s-23.42,4.27-30.84,12.82c-7.42,8.55-11.13,20.14-11.13,34.78s3.71,25.73,11.13,34.36c7.42,8.64,17.7,12.96,30.84,12.96Z"/>
    <path class="cls-1" d="M600.17,207.58c-14.27,0-25.21-3.76-32.81-11.27-7.6-7.51-11.41-18.4-11.41-32.67v-69.85h-24.79v-24.79h24.79V31.83h29.01v37.18h36.62v24.79h-36.62v65.06c0,8.64,1.69,14.69,5.07,18.17,3.38,3.48,8.92,5.21,16.62,5.21,2.25,0,4.65-.14,7.18-.42,2.54-.28,5.11-.61,7.75-.99v23.38c-3.2.94-6.62,1.73-10.28,2.39-3.66.66-7.37.99-11.12.99Z"/>
    <path class="cls-1" d="M677.05,208.99c-13.9,0-25.54-3.61-34.93-10.84-9.39-7.23-14.08-17.32-14.08-30.28,0-6.76,1.22-12.48,3.66-17.18,2.44-4.69,5.54-8.63,9.29-11.83,5.82-4.88,12.91-8.45,21.27-10.7,8.35-2.25,17.51-3.94,27.46-5.07,6.94-.56,12.77-1.31,17.46-2.25,4.69-.94,8.21-2.39,10.56-4.37,2.35-1.97,3.52-5.02,3.52-9.15,0-6.01-2.77-10.51-8.31-13.52-5.54-3-13.38-4.51-23.52-4.51-9.2,0-16.85,1.32-22.95,3.94-6.1,2.63-11.79,7.32-17.04,14.08l-21.41-15.77c7.51-9.76,16.2-16.66,26.05-20.7,9.86-4.04,21.27-6.06,34.22-6.06,19.53,0,34.69,3.99,45.49,11.97,10.8,7.98,16.2,19.58,16.2,34.78v94.07h-26.48v-36.33l7.32,1.41c-2.07,8.26-5.68,15.26-10.84,20.98-5.17,5.73-11.36,10.05-18.59,12.96-7.23,2.91-15.35,4.37-24.36,4.37ZM681.56,185.05c7.51,0,14.36-1.5,20.56-4.51,6.2-3,11.13-7.32,14.79-12.96,3.66-5.63,5.49-12.49,5.49-20.56v-10.98c-2.82,2.44-6.05,4.27-9.72,5.49-3.66,1.22-9.43,2.21-17.32,2.96-6.57.75-12.35,1.6-17.32,2.53-4.98.94-9.25,2.53-12.82,4.79-2.25,1.88-4.08,4.04-5.49,6.48-1.41,2.44-2.11,5.45-2.11,9.01,0,5.45,2.06,9.77,6.2,12.96,4.13,3.2,10.04,4.79,17.75,4.79Z"/>
  </g>
  <g>
    <path class="cls-3" d="M205.26,0L0,205.26v-92.17c0-6.69,2.66-13.11,7.39-17.85L95.24,7.39c4.73-4.73,11.15-7.39,17.85-7.39h92.17Z"/>
    <path class="cls-2" d="M93.11,112.15v82.07c0,6.29,5.1,11.39,11.39,11.39h82.07l-93.46-93.46Z"/>
  </g>
</svg>